PERFORMER "Above & Beyond"
TITLE "Essential Mix (2004-06-06)"
FILE "Above & Beyond - Essential Mix (june 6 2004).mp3" MP3
  TRACK 01 AUDIO
    TITLE "Ghosts"
    PERFORMER "Thomas Newman"
    INDEX 01 00:00:00
  TRACK 02 AUDIO
    TITLE "Troubles in the World (Accapella)"
    PERFORMER "Above & Beyond"
    INDEX 01 01:41:46
  TRACK 03 AUDIO
    TITLE "Foreplay (original mix)"
    PERFORMER "Probspot"
    INDEX 01 09:51:23
  TRACK 04 AUDIO
    TITLE "World on Fire (Junkie XL Remix)"
    PERFORMER "Sarah Mclachlan"
    INDEX 01 15:06:25
  TRACK 05 AUDIO
    TITLE "The White Room"
    PERFORMER "Adam White & Andy Moor present White Room"
    INDEX 01 22:27:65
  TRACK 06 AUDIO
    TITLE "Point Zero (Leama & Moor Remix)"
    PERFORMER "Li Kwan"
    INDEX 01 29:34:47
  TRACK 07 AUDIO
    TITLE "Symphotek"
    PERFORMER "Planisphere"
    INDEX 01 36:11:09
  TRACK 08 AUDIO
    TITLE "Radiance"
    PERFORMER "Oliver Prime"
    INDEX 01 39:57:54
  TRACK 09 AUDIO
    TITLE "Punk'd mash up with Sander Van Doorn Loaded (SVD Remix)"
    PERFORMER "Sander Van Doorn"
    INDEX 01 46:59:46
  TRACK 10 AUDIO
    TITLE "In Silence (Txitxarro Remix)"
    PERFORMER "Randy Katana"
    INDEX 01 54:01:27
  TRACK 11 AUDIO
    TITLE "Reading Room"
    PERFORMER "Thomas Newman"
    INDEX 01 59:52:63
  TRACK 12 AUDIO
    TITLE "No One On Earth"
    PERFORMER "Above & Beyond Feat. Zoe Johnston"
    INDEX 01 62:32:22
  TRACK 13 AUDIO
    TITLE "Guanxi (Super8 Remix)"
    PERFORMER "Menno de Jong"
    INDEX 01 69:29:04
  TRACK 14 AUDIO
    TITLE "Believe"
    PERFORMER "Smith & Pledger"
    INDEX 01 75:05:53
  TRACK 15 AUDIO
    TITLE "The Festival (Original mix)"
    PERFORMER "Scintilator"
    INDEX 01 81:47:29
  TRACK 16 AUDIO
    TITLE "E.O.S. (Positive Ways Mix)"
    PERFORMER "Ronski Speed"
    INDEX 01 87:19:15
  TRACK 17 AUDIO
    TITLE "Silence (Above & Beyond Remix)"
    PERFORMER "Delerium"
    INDEX 01 91:31:38
  TRACK 18 AUDIO
    TITLE "Getting Away"
    PERFORMER "Above & Beyond pres. Tranquility Base"
    INDEX 01 98:52:19
  TRACK 19 AUDIO
    TITLE "Cr8"
    PERFORMER "Super8"
    INDEX 01 105:31:50
  TRACK 20 AUDIO
    TITLE "Surrender"
    PERFORMER "Above & Beyond pres. Tranquility Base"
    INDEX 01 111:56:18
  TRACK 21 AUDIO
    TITLE "Essential"
    PERFORMER "Above & Beyond"
    INDEX 01 118:48:35
 